<mxfile host="app.diagrams.net" agent="Mozilla/5.0 (Windows NT 10.0; Win64; x64) AppleWebKit/537.36 (KHTML, like Gecko) Chrome/137.0.0.0 Safari/537.36 Edg/137.0.0.0" version="27.1.4">
  <diagram name="Page-1" id="zDk2KeG2mPRXOkqhra8w">
    <mxGraphModel dx="2231" dy="683" grid="1" gridSize="10" guides="1" tooltips="1" connect="1" arrows="1" fold="1" page="1" pageScale="1" pageWidth="850" pageHeight="1100" math="0" shadow="0">
      <root>
        <mxCell id="0" />
        <mxCell id="1" parent="0" />
        <mxCell id="UB6NhhUUTc9ALlEmd36D-1" value="" style="ellipse;whiteSpace=wrap;html=1;aspect=fixed;" vertex="1" parent="1">
          <mxGeometry x="-240" y="120" width="40" height="40" as="geometry" />
        </mxCell>
        <mxCell id="UB6NhhUUTc9ALlEmd36D-2" value="" style="endArrow=none;html=1;rounded=0;entryX=0.5;entryY=1;entryDx=0;entryDy=0;" edge="1" parent="1" target="UB6NhhUUTc9ALlEmd36D-1">
          <mxGeometry width="50" height="50" relative="1" as="geometry">
            <mxPoint x="-220" y="220" as="sourcePoint" />
            <mxPoint x="450" y="400" as="targetPoint" />
          </mxGeometry>
        </mxCell>
        <mxCell id="UB6NhhUUTc9ALlEmd36D-3" value="" style="endArrow=none;html=1;rounded=0;" edge="1" parent="1">
          <mxGeometry width="50" height="50" relative="1" as="geometry">
            <mxPoint x="-180" y="170" as="sourcePoint" />
            <mxPoint x="-260" y="170" as="targetPoint" />
          </mxGeometry>
        </mxCell>
        <mxCell id="UB6NhhUUTc9ALlEmd36D-4" value="" style="endArrow=none;html=1;rounded=0;" edge="1" parent="1">
          <mxGeometry width="50" height="50" relative="1" as="geometry">
            <mxPoint x="-190" y="260" as="sourcePoint" />
            <mxPoint x="-220" y="220" as="targetPoint" />
          </mxGeometry>
        </mxCell>
        <mxCell id="UB6NhhUUTc9ALlEmd36D-5" value="" style="endArrow=none;html=1;rounded=0;" edge="1" parent="1">
          <mxGeometry width="50" height="50" relative="1" as="geometry">
            <mxPoint x="-250" y="260" as="sourcePoint" />
            <mxPoint x="-220" y="220" as="targetPoint" />
          </mxGeometry>
        </mxCell>
        <mxCell id="UB6NhhUUTc9ALlEmd36D-6" value="&lt;font style=&quot;font-size: 18px;&quot;&gt;Khách hàng&lt;/font&gt;" style="text;html=1;align=center;verticalAlign=middle;whiteSpace=wrap;rounded=0;" vertex="1" parent="1">
          <mxGeometry x="-280" y="260" width="120" height="30" as="geometry" />
        </mxCell>
        <mxCell id="UB6NhhUUTc9ALlEmd36D-7" value="" style="endArrow=none;dashed=1;html=1;rounded=0;entryX=0.5;entryY=1;entryDx=0;entryDy=0;" edge="1" parent="1" target="UB6NhhUUTc9ALlEmd36D-6">
          <mxGeometry width="50" height="50" relative="1" as="geometry">
            <mxPoint x="-220" y="720" as="sourcePoint" />
            <mxPoint x="180" y="300" as="targetPoint" />
          </mxGeometry>
        </mxCell>
        <mxCell id="UB6NhhUUTc9ALlEmd36D-8" value="&amp;lt;&amp;lt;View&amp;gt;&amp;gt;&lt;div&gt;:OrderWindow&lt;/div&gt;" style="rounded=1;whiteSpace=wrap;html=1;" vertex="1" parent="1">
          <mxGeometry x="-40" y="180" width="160" height="70" as="geometry" />
        </mxCell>
        <mxCell id="UB6NhhUUTc9ALlEmd36D-9" value="" style="endArrow=none;dashed=1;html=1;rounded=0;entryX=0.5;entryY=1;entryDx=0;entryDy=0;" edge="1" parent="1" target="UB6NhhUUTc9ALlEmd36D-8">
          <mxGeometry width="50" height="50" relative="1" as="geometry">
            <mxPoint x="40" y="310" as="sourcePoint" />
            <mxPoint x="230" y="390" as="targetPoint" />
          </mxGeometry>
        </mxCell>
        <mxCell id="UB6NhhUUTc9ALlEmd36D-10" value="" style="rounded=1;whiteSpace=wrap;html=1;" vertex="1" parent="1">
          <mxGeometry x="30" y="310" width="20" height="330" as="geometry" />
        </mxCell>
        <mxCell id="UB6NhhUUTc9ALlEmd36D-11" value="" style="endArrow=classic;html=1;rounded=0;entryX=0.017;entryY=0.155;entryDx=0;entryDy=0;entryPerimeter=0;" edge="1" parent="1" target="UB6NhhUUTc9ALlEmd36D-10">
          <mxGeometry width="50" height="50" relative="1" as="geometry">
            <mxPoint x="-220" y="360" as="sourcePoint" />
            <mxPoint x="230" y="390" as="targetPoint" />
          </mxGeometry>
        </mxCell>
        <mxCell id="UB6NhhUUTc9ALlEmd36D-12" value="Yêu cầu kiểm tra đơn hàng" style="text;html=1;align=center;verticalAlign=middle;whiteSpace=wrap;rounded=0;" vertex="1" parent="1">
          <mxGeometry x="-210" y="330" width="210" height="30" as="geometry" />
        </mxCell>
        <mxCell id="UB6NhhUUTc9ALlEmd36D-13" value="" style="endArrow=none;dashed=1;html=1;rounded=0;entryX=0.5;entryY=1;entryDx=0;entryDy=0;" edge="1" parent="1" target="UB6NhhUUTc9ALlEmd36D-10">
          <mxGeometry width="50" height="50" relative="1" as="geometry">
            <mxPoint x="40" y="720" as="sourcePoint" />
            <mxPoint x="230" y="530" as="targetPoint" />
          </mxGeometry>
        </mxCell>
        <mxCell id="UB6NhhUUTc9ALlEmd36D-14" value="&amp;lt;&amp;lt;Controller&amp;gt;&amp;gt;&lt;div&gt;:OrderHandle&lt;/div&gt;" style="rounded=1;whiteSpace=wrap;html=1;" vertex="1" parent="1">
          <mxGeometry x="200" y="180" width="160" height="70" as="geometry" />
        </mxCell>
        <mxCell id="UB6NhhUUTc9ALlEmd36D-15" value="" style="endArrow=none;dashed=1;html=1;rounded=0;entryX=0.5;entryY=1;entryDx=0;entryDy=0;exitX=0.5;exitY=0;exitDx=0;exitDy=0;" edge="1" target="UB6NhhUUTc9ALlEmd36D-14" parent="1" source="UB6NhhUUTc9ALlEmd36D-16">
          <mxGeometry width="50" height="50" relative="1" as="geometry">
            <mxPoint x="280" y="310" as="sourcePoint" />
            <mxPoint x="470" y="390" as="targetPoint" />
          </mxGeometry>
        </mxCell>
        <mxCell id="UB6NhhUUTc9ALlEmd36D-16" value="" style="rounded=1;whiteSpace=wrap;html=1;" vertex="1" parent="1">
          <mxGeometry x="270" y="340" width="20" height="270" as="geometry" />
        </mxCell>
        <mxCell id="UB6NhhUUTc9ALlEmd36D-17" value="" style="endArrow=none;dashed=1;html=1;rounded=0;entryX=0.5;entryY=1;entryDx=0;entryDy=0;" edge="1" target="UB6NhhUUTc9ALlEmd36D-16" parent="1">
          <mxGeometry width="50" height="50" relative="1" as="geometry">
            <mxPoint x="280" y="720" as="sourcePoint" />
            <mxPoint x="470" y="530" as="targetPoint" />
          </mxGeometry>
        </mxCell>
        <mxCell id="UB6NhhUUTc9ALlEmd36D-18" value="aC: Order" style="rounded=1;whiteSpace=wrap;html=1;" vertex="1" parent="1">
          <mxGeometry x="430" y="180" width="160" height="70" as="geometry" />
        </mxCell>
        <mxCell id="UB6NhhUUTc9ALlEmd36D-19" value="" style="endArrow=none;dashed=1;html=1;rounded=0;entryX=0.5;entryY=1;entryDx=0;entryDy=0;exitX=0.5;exitY=0;exitDx=0;exitDy=0;" edge="1" target="UB6NhhUUTc9ALlEmd36D-18" parent="1" source="UB6NhhUUTc9ALlEmd36D-20">
          <mxGeometry width="50" height="50" relative="1" as="geometry">
            <mxPoint x="510" y="310" as="sourcePoint" />
            <mxPoint x="700" y="390" as="targetPoint" />
          </mxGeometry>
        </mxCell>
        <mxCell id="UB6NhhUUTc9ALlEmd36D-20" value="" style="rounded=1;whiteSpace=wrap;html=1;" vertex="1" parent="1">
          <mxGeometry x="500" y="360" width="20" height="230" as="geometry" />
        </mxCell>
        <mxCell id="UB6NhhUUTc9ALlEmd36D-21" value="" style="endArrow=none;dashed=1;html=1;rounded=0;entryX=0.5;entryY=1;entryDx=0;entryDy=0;" edge="1" target="UB6NhhUUTc9ALlEmd36D-20" parent="1">
          <mxGeometry width="50" height="50" relative="1" as="geometry">
            <mxPoint x="510" y="720" as="sourcePoint" />
            <mxPoint x="700" y="530" as="targetPoint" />
          </mxGeometry>
        </mxCell>
        <mxCell id="UB6NhhUUTc9ALlEmd36D-22" value="&amp;lt;&amp;lt;Dam&amp;gt;&amp;gt;&lt;div&gt;:OrderDAM&lt;/div&gt;" style="rounded=1;whiteSpace=wrap;html=1;" vertex="1" parent="1">
          <mxGeometry x="640" y="180" width="160" height="70" as="geometry" />
        </mxCell>
        <mxCell id="UB6NhhUUTc9ALlEmd36D-23" value="" style="endArrow=none;dashed=1;html=1;rounded=0;entryX=0.5;entryY=1;entryDx=0;entryDy=0;" edge="1" target="UB6NhhUUTc9ALlEmd36D-22" parent="1" source="UB6NhhUUTc9ALlEmd36D-24">
          <mxGeometry width="50" height="50" relative="1" as="geometry">
            <mxPoint x="720" y="310" as="sourcePoint" />
            <mxPoint x="910" y="390" as="targetPoint" />
          </mxGeometry>
        </mxCell>
        <mxCell id="UB6NhhUUTc9ALlEmd36D-24" value="" style="rounded=1;whiteSpace=wrap;html=1;" vertex="1" parent="1">
          <mxGeometry x="710" y="390" width="20" height="170" as="geometry" />
        </mxCell>
        <mxCell id="UB6NhhUUTc9ALlEmd36D-25" value="" style="endArrow=none;dashed=1;html=1;rounded=0;entryX=0.5;entryY=1;entryDx=0;entryDy=0;" edge="1" target="UB6NhhUUTc9ALlEmd36D-24" parent="1">
          <mxGeometry width="50" height="50" relative="1" as="geometry">
            <mxPoint x="720" y="720" as="sourcePoint" />
            <mxPoint x="910" y="530" as="targetPoint" />
          </mxGeometry>
        </mxCell>
        <mxCell id="UB6NhhUUTc9ALlEmd36D-26" value="DataBase" style="rounded=1;whiteSpace=wrap;html=1;" vertex="1" parent="1">
          <mxGeometry x="860" y="180" width="160" height="70" as="geometry" />
        </mxCell>
        <mxCell id="UB6NhhUUTc9ALlEmd36D-27" value="" style="endArrow=none;dashed=1;html=1;rounded=0;entryX=0.5;entryY=1;entryDx=0;entryDy=0;exitX=0.5;exitY=0;exitDx=0;exitDy=0;" edge="1" target="UB6NhhUUTc9ALlEmd36D-26" parent="1" source="UB6NhhUUTc9ALlEmd36D-28">
          <mxGeometry width="50" height="50" relative="1" as="geometry">
            <mxPoint x="940" y="310" as="sourcePoint" />
            <mxPoint x="1130" y="390" as="targetPoint" />
          </mxGeometry>
        </mxCell>
        <mxCell id="UB6NhhUUTc9ALlEmd36D-28" value="" style="rounded=1;whiteSpace=wrap;html=1;" vertex="1" parent="1">
          <mxGeometry x="930" y="430" width="20" height="100" as="geometry" />
        </mxCell>
        <mxCell id="UB6NhhUUTc9ALlEmd36D-29" value="" style="endArrow=none;dashed=1;html=1;rounded=0;entryX=0.5;entryY=1;entryDx=0;entryDy=0;" edge="1" target="UB6NhhUUTc9ALlEmd36D-28" parent="1">
          <mxGeometry width="50" height="50" relative="1" as="geometry">
            <mxPoint x="940" y="720" as="sourcePoint" />
            <mxPoint x="1130" y="530" as="targetPoint" />
          </mxGeometry>
        </mxCell>
        <mxCell id="UB6NhhUUTc9ALlEmd36D-30" value="" style="endArrow=classic;html=1;rounded=0;exitX=1;exitY=0.25;exitDx=0;exitDy=0;" edge="1" parent="1" source="UB6NhhUUTc9ALlEmd36D-10">
          <mxGeometry width="50" height="50" relative="1" as="geometry">
            <mxPoint x="430" y="550" as="sourcePoint" />
            <mxPoint x="270" y="393" as="targetPoint" />
          </mxGeometry>
        </mxCell>
        <mxCell id="UB6NhhUUTc9ALlEmd36D-31" value="Gửi yêu cầu kiểm tra đơn hàng" style="text;html=1;align=center;verticalAlign=middle;whiteSpace=wrap;rounded=0;" vertex="1" parent="1">
          <mxGeometry x="50" y="360" width="210" height="30" as="geometry" />
        </mxCell>
        <mxCell id="UB6NhhUUTc9ALlEmd36D-32" value="" style="endArrow=classic;html=1;rounded=0;exitX=1.091;exitY=0.295;exitDx=0;exitDy=0;exitPerimeter=0;entryX=0.247;entryY=0.268;entryDx=0;entryDy=0;entryPerimeter=0;" edge="1" parent="1" source="UB6NhhUUTc9ALlEmd36D-16" target="UB6NhhUUTc9ALlEmd36D-20">
          <mxGeometry width="50" height="50" relative="1" as="geometry">
            <mxPoint x="340" y="520" as="sourcePoint" />
            <mxPoint x="390" y="470" as="targetPoint" />
          </mxGeometry>
        </mxCell>
        <mxCell id="UB6NhhUUTc9ALlEmd36D-33" value="ac = Order&lt;div&gt;(id,tên, số lượng, tổng tiền)&lt;/div&gt;" style="text;html=1;align=center;verticalAlign=middle;whiteSpace=wrap;rounded=0;" vertex="1" parent="1">
          <mxGeometry x="290" y="390" width="200" height="30" as="geometry" />
        </mxCell>
        <mxCell id="UB6NhhUUTc9ALlEmd36D-34" value="" style="endArrow=classic;html=1;rounded=0;exitX=1.117;exitY=0.346;exitDx=0;exitDy=0;exitPerimeter=0;entryX=0.075;entryY=0.286;entryDx=0;entryDy=0;entryPerimeter=0;" edge="1" parent="1" source="UB6NhhUUTc9ALlEmd36D-20" target="UB6NhhUUTc9ALlEmd36D-24">
          <mxGeometry width="50" height="50" relative="1" as="geometry">
            <mxPoint x="400" y="510" as="sourcePoint" />
            <mxPoint x="450" y="460" as="targetPoint" />
          </mxGeometry>
        </mxCell>
        <mxCell id="UB6NhhUUTc9ALlEmd36D-35" value="ReadDB(ac)" style="text;html=1;align=center;verticalAlign=middle;whiteSpace=wrap;rounded=0;" vertex="1" parent="1">
          <mxGeometry x="520" y="410" width="180" height="30" as="geometry" />
        </mxCell>
        <mxCell id="UB6NhhUUTc9ALlEmd36D-38" value="" style="endArrow=classic;html=1;rounded=0;exitX=1.097;exitY=0.409;exitDx=0;exitDy=0;exitPerimeter=0;entryX=0.075;entryY=0.286;entryDx=0;entryDy=0;entryPerimeter=0;" edge="1" parent="1" source="UB6NhhUUTc9ALlEmd36D-24">
          <mxGeometry width="50" height="50" relative="1" as="geometry">
            <mxPoint x="740" y="460" as="sourcePoint" />
            <mxPoint x="930" y="459" as="targetPoint" />
          </mxGeometry>
        </mxCell>
        <mxCell id="UB6NhhUUTc9ALlEmd36D-39" value="Đọc thông tin ac trong csdl" style="text;html=1;align=center;verticalAlign=middle;whiteSpace=wrap;rounded=0;" vertex="1" parent="1">
          <mxGeometry x="738" y="430" width="180" height="30" as="geometry" />
        </mxCell>
        <mxCell id="UB6NhhUUTc9ALlEmd36D-40" value="" style="triangle;whiteSpace=wrap;html=1;direction=west;" vertex="1" parent="1">
          <mxGeometry x="730" y="510" width="10" height="20" as="geometry" />
        </mxCell>
        <mxCell id="UB6NhhUUTc9ALlEmd36D-41" value="" style="endArrow=none;dashed=1;html=1;rounded=0;entryX=0;entryY=0.5;entryDx=0;entryDy=0;exitX=-0.092;exitY=0.903;exitDx=0;exitDy=0;exitPerimeter=0;" edge="1" parent="1" source="UB6NhhUUTc9ALlEmd36D-28" target="UB6NhhUUTc9ALlEmd36D-40">
          <mxGeometry width="50" height="50" relative="1" as="geometry">
            <mxPoint x="510" y="440" as="sourcePoint" />
            <mxPoint x="560" y="390" as="targetPoint" />
          </mxGeometry>
        </mxCell>
        <mxCell id="UB6NhhUUTc9ALlEmd36D-42" value="Trả về thông tin ac" style="text;html=1;align=center;verticalAlign=middle;whiteSpace=wrap;rounded=0;" vertex="1" parent="1">
          <mxGeometry x="740" y="520" width="180" height="30" as="geometry" />
        </mxCell>
        <mxCell id="UB6NhhUUTc9ALlEmd36D-44" value="" style="triangle;whiteSpace=wrap;html=1;direction=west;" vertex="1" parent="1">
          <mxGeometry x="520" y="530" width="10" height="20" as="geometry" />
        </mxCell>
        <mxCell id="UB6NhhUUTc9ALlEmd36D-45" value="" style="endArrow=none;dashed=1;html=1;rounded=0;entryX=0;entryY=0.5;entryDx=0;entryDy=0;exitX=1;exitY=0;exitDx=0;exitDy=0;" edge="1" target="UB6NhhUUTc9ALlEmd36D-44" parent="1" source="UB6NhhUUTc9ALlEmd36D-46">
          <mxGeometry width="50" height="50" relative="1" as="geometry">
            <mxPoint x="718" y="540" as="sourcePoint" />
            <mxPoint x="350" y="410" as="targetPoint" />
          </mxGeometry>
        </mxCell>
        <mxCell id="UB6NhhUUTc9ALlEmd36D-46" value="Thông tin ac" style="text;html=1;align=center;verticalAlign=middle;whiteSpace=wrap;rounded=0;" vertex="1" parent="1">
          <mxGeometry x="530" y="540" width="180" height="30" as="geometry" />
        </mxCell>
        <mxCell id="UB6NhhUUTc9ALlEmd36D-47" value="" style="triangle;whiteSpace=wrap;html=1;direction=west;" vertex="1" parent="1">
          <mxGeometry x="290" y="560" width="10" height="20" as="geometry" />
        </mxCell>
        <mxCell id="UB6NhhUUTc9ALlEmd36D-48" value="" style="endArrow=none;dashed=1;html=1;rounded=0;entryX=0;entryY=0.5;entryDx=0;entryDy=0;exitX=1;exitY=0;exitDx=0;exitDy=0;" edge="1" source="UB6NhhUUTc9ALlEmd36D-49" target="UB6NhhUUTc9ALlEmd36D-47" parent="1">
          <mxGeometry width="50" height="50" relative="1" as="geometry">
            <mxPoint x="488" y="570" as="sourcePoint" />
            <mxPoint x="120" y="440" as="targetPoint" />
          </mxGeometry>
        </mxCell>
        <mxCell id="UB6NhhUUTc9ALlEmd36D-49" value="Trả về thông tin đơn hàng" style="text;html=1;align=center;verticalAlign=middle;whiteSpace=wrap;rounded=0;" vertex="1" parent="1">
          <mxGeometry x="300" y="570" width="200" height="30" as="geometry" />
        </mxCell>
        <mxCell id="UB6NhhUUTc9ALlEmd36D-50" value="" style="triangle;whiteSpace=wrap;html=1;direction=west;" vertex="1" parent="1">
          <mxGeometry x="50" y="580" width="10" height="20" as="geometry" />
        </mxCell>
        <mxCell id="UB6NhhUUTc9ALlEmd36D-51" value="" style="endArrow=none;dashed=1;html=1;rounded=0;entryX=0;entryY=0.5;entryDx=0;entryDy=0;exitX=1;exitY=0;exitDx=0;exitDy=0;" edge="1" source="UB6NhhUUTc9ALlEmd36D-52" target="UB6NhhUUTc9ALlEmd36D-50" parent="1">
          <mxGeometry width="50" height="50" relative="1" as="geometry">
            <mxPoint x="248" y="590" as="sourcePoint" />
            <mxPoint x="-120" y="460" as="targetPoint" />
          </mxGeometry>
        </mxCell>
        <mxCell id="UB6NhhUUTc9ALlEmd36D-52" value="Trả về trạng thái đơn hàng" style="text;html=1;align=center;verticalAlign=middle;whiteSpace=wrap;rounded=0;" vertex="1" parent="1">
          <mxGeometry x="70" y="590" width="200" height="30" as="geometry" />
        </mxCell>
        <mxCell id="UB6NhhUUTc9ALlEmd36D-53" value="" style="triangle;whiteSpace=wrap;html=1;direction=west;" vertex="1" parent="1">
          <mxGeometry x="-220" y="610" width="10" height="20" as="geometry" />
        </mxCell>
        <mxCell id="UB6NhhUUTc9ALlEmd36D-54" value="" style="endArrow=none;dashed=1;html=1;rounded=0;entryX=0;entryY=0.5;entryDx=0;entryDy=0;exitX=1;exitY=0;exitDx=0;exitDy=0;" edge="1" source="UB6NhhUUTc9ALlEmd36D-55" target="UB6NhhUUTc9ALlEmd36D-53" parent="1">
          <mxGeometry width="50" height="50" relative="1" as="geometry">
            <mxPoint x="-22" y="620" as="sourcePoint" />
            <mxPoint x="-390" y="490" as="targetPoint" />
          </mxGeometry>
        </mxCell>
        <mxCell id="UB6NhhUUTc9ALlEmd36D-55" value="Thông báo trạng thái đơn hàng" style="text;html=1;align=center;verticalAlign=middle;whiteSpace=wrap;rounded=0;" vertex="1" parent="1">
          <mxGeometry x="-200" y="620" width="230" height="30" as="geometry" />
        </mxCell>
      </root>
    </mxGraphModel>
  </diagram>
</mxfile>
